<mxfile host="app.diagrams.net" agent="Mozilla/5.0 (Windows NT 10.0; Win64; x64) AppleWebKit/537.36 (KHTML, like Gecko) Chrome/131.0.0.0 Safari/537.36" version="26.0.4">
  <diagram name="Page-1" id="t_25mNNDLkBabMCocTw5">
    <mxGraphModel dx="1749" dy="1895" grid="0" gridSize="10" guides="1" tooltips="1" connect="1" arrows="1" fold="1" page="0" pageScale="1" pageWidth="850" pageHeight="1100" math="0" shadow="0">
      <root>
        <mxCell id="0" />
        <mxCell id="1" parent="0" />
        <mxCell id="DY5siafQQTwBGPKg2IYG-1" value="CUSTOMER" style="shape=umlActor;verticalLabelPosition=bottom;verticalAlign=top;html=1;" parent="1" vertex="1">
          <mxGeometry x="-389" y="-39" width="31" height="60" as="geometry" />
        </mxCell>
        <mxCell id="DY5siafQQTwBGPKg2IYG-2" value="OFFICER" style="shape=umlActor;verticalLabelPosition=bottom;verticalAlign=top;html=1;" parent="1" vertex="1">
          <mxGeometry x="485" y="-39" width="31" height="60" as="geometry" />
        </mxCell>
        <mxCell id="DY5siafQQTwBGPKg2IYG-8" value="LANGUAGE" style="ellipse;whiteSpace=wrap;html=1;" parent="1" vertex="1">
          <mxGeometry x="-222.5" y="-238" width="113" height="43" as="geometry" />
        </mxCell>
        <mxCell id="DY5siafQQTwBGPKg2IYG-9" value="GENERE" style="ellipse;whiteSpace=wrap;html=1;" parent="1" vertex="1">
          <mxGeometry x="151" y="-232" width="112" height="42" as="geometry" />
        </mxCell>
        <mxCell id="DY5siafQQTwBGPKg2IYG-10" value="UPDATE/CANCEL" style="ellipse;whiteSpace=wrap;html=1;" parent="1" vertex="1">
          <mxGeometry x="260" y="-187" width="112" height="42" as="geometry" />
        </mxCell>
        <mxCell id="DY5siafQQTwBGPKg2IYG-11" value="TITLE" style="ellipse;whiteSpace=wrap;html=1;" parent="1" vertex="1">
          <mxGeometry x="-100" y="-276" width="112" height="42" as="geometry" />
        </mxCell>
        <mxCell id="DY5siafQQTwBGPKg2IYG-12" value="DURATION" style="ellipse;whiteSpace=wrap;html=1;" parent="1" vertex="1">
          <mxGeometry x="28" y="-254" width="112" height="43" as="geometry" />
        </mxCell>
        <mxCell id="DY5siafQQTwBGPKg2IYG-15" value="ONLINE MOVIE TICKET BOOKING" style="shape=umlFrame;whiteSpace=wrap;html=1;pointerEvents=0;width=225;height=48;" parent="1" vertex="1">
          <mxGeometry x="-250.5" y="-506" width="625" height="1405" as="geometry" />
        </mxCell>
        <mxCell id="DY5siafQQTwBGPKg2IYG-16" style="edgeStyle=none;curved=1;rounded=0;orthogonalLoop=1;jettySize=auto;html=1;exitX=1;exitY=0.5;exitDx=0;exitDy=0;fontSize=12;startSize=8;endSize=8;" parent="1" source="DY5siafQQTwBGPKg2IYG-9" target="DY5siafQQTwBGPKg2IYG-9" edge="1">
          <mxGeometry relative="1" as="geometry" />
        </mxCell>
        <mxCell id="DY5siafQQTwBGPKg2IYG-17" style="edgeStyle=none;curved=1;rounded=0;orthogonalLoop=1;jettySize=auto;html=1;exitX=1;exitY=0.5;exitDx=0;exitDy=0;fontSize=12;startSize=8;endSize=8;" parent="1" source="DY5siafQQTwBGPKg2IYG-9" target="DY5siafQQTwBGPKg2IYG-9" edge="1">
          <mxGeometry relative="1" as="geometry" />
        </mxCell>
        <mxCell id="DY5siafQQTwBGPKg2IYG-25" value="SEARCH MOVIE" style="ellipse;html=1;whiteSpace=wrap;" parent="1" vertex="1">
          <mxGeometry x="1" y="-174" width="121" height="59" as="geometry" />
        </mxCell>
        <mxCell id="rcEBxRL5Bv03gHmZArJm-14" value="" style="endArrow=none;startArrow=none;endFill=0;startFill=0;endSize=8;html=1;verticalAlign=bottom;labelBackgroundColor=none;strokeWidth=3;rounded=0;fontSize=12;curved=1;entryX=1;entryY=0.3333333333333333;entryDx=0;entryDy=0;entryPerimeter=0;exitX=0;exitY=1;exitDx=0;exitDy=0;" edge="1" parent="1" source="DY5siafQQTwBGPKg2IYG-25" target="DY5siafQQTwBGPKg2IYG-1">
          <mxGeometry width="160" relative="1" as="geometry">
            <mxPoint x="-49" y="13" as="sourcePoint" />
            <mxPoint x="111" y="13" as="targetPoint" />
          </mxGeometry>
        </mxCell>
        <mxCell id="rcEBxRL5Bv03gHmZArJm-16" value="" style="endArrow=none;startArrow=none;endFill=0;startFill=0;endSize=8;html=1;verticalAlign=bottom;labelBackgroundColor=none;strokeWidth=3;rounded=0;fontSize=12;curved=1;exitX=0;exitY=0.3333333333333333;exitDx=0;exitDy=0;exitPerimeter=0;" edge="1" parent="1" source="DY5siafQQTwBGPKg2IYG-2">
          <mxGeometry width="160" relative="1" as="geometry">
            <mxPoint x="-52" y="-124" as="sourcePoint" />
            <mxPoint x="108" y="-124" as="targetPoint" />
          </mxGeometry>
        </mxCell>
        <mxCell id="rcEBxRL5Bv03gHmZArJm-19" value="ADMIN" style="shape=umlActor;verticalLabelPosition=bottom;verticalAlign=top;html=1;" vertex="1" parent="1">
          <mxGeometry x="473" y="-438" width="30" height="63" as="geometry" />
        </mxCell>
        <mxCell id="rcEBxRL5Bv03gHmZArJm-22" value="ADD SHOW" style="ellipse;whiteSpace=wrap;html=1;align=center;" vertex="1" parent="1">
          <mxGeometry x="240" y="-473" width="100" height="40" as="geometry" />
        </mxCell>
        <mxCell id="rcEBxRL5Bv03gHmZArJm-23" value="CANCEL SHOW" style="ellipse;whiteSpace=wrap;html=1;align=center;" vertex="1" parent="1">
          <mxGeometry x="257" y="-311" width="100" height="40" as="geometry" />
        </mxCell>
        <mxCell id="rcEBxRL5Bv03gHmZArJm-24" value="ADD MOVIE" style="ellipse;whiteSpace=wrap;html=1;align=center;" vertex="1" parent="1">
          <mxGeometry x="240" y="-365" width="100" height="40" as="geometry" />
        </mxCell>
        <mxCell id="rcEBxRL5Bv03gHmZArJm-25" value="MODIFY SHOW" style="ellipse;whiteSpace=wrap;html=1;align=center;" vertex="1" parent="1">
          <mxGeometry x="240" y="-418" width="100" height="40" as="geometry" />
        </mxCell>
        <mxCell id="rcEBxRL5Bv03gHmZArJm-29" value="" style="endArrow=none;html=1;rounded=0;fontSize=12;startSize=8;endSize=8;curved=1;exitX=1;exitY=0.5;exitDx=0;exitDy=0;entryX=0;entryY=0.3333333333333333;entryDx=0;entryDy=0;entryPerimeter=0;" edge="1" parent="1" source="rcEBxRL5Bv03gHmZArJm-22" target="rcEBxRL5Bv03gHmZArJm-19">
          <mxGeometry relative="1" as="geometry">
            <mxPoint x="78" y="-26" as="sourcePoint" />
            <mxPoint x="238" y="-26" as="targetPoint" />
          </mxGeometry>
        </mxCell>
        <mxCell id="rcEBxRL5Bv03gHmZArJm-31" value="" style="endArrow=none;html=1;rounded=0;fontSize=12;startSize=8;endSize=8;curved=1;exitX=1;exitY=0.5;exitDx=0;exitDy=0;" edge="1" parent="1" source="rcEBxRL5Bv03gHmZArJm-23">
          <mxGeometry relative="1" as="geometry">
            <mxPoint x="78" y="-26" as="sourcePoint" />
            <mxPoint x="468" y="-416" as="targetPoint" />
          </mxGeometry>
        </mxCell>
        <mxCell id="rcEBxRL5Bv03gHmZArJm-32" value="" style="endArrow=none;html=1;rounded=0;fontSize=12;startSize=8;endSize=8;curved=1;exitX=1;exitY=0.5;exitDx=0;exitDy=0;" edge="1" parent="1" source="rcEBxRL5Bv03gHmZArJm-24">
          <mxGeometry relative="1" as="geometry">
            <mxPoint x="321" y="-288" as="sourcePoint" />
            <mxPoint x="471" y="-418" as="targetPoint" />
          </mxGeometry>
        </mxCell>
        <mxCell id="rcEBxRL5Bv03gHmZArJm-33" value="" style="endArrow=none;html=1;rounded=0;fontSize=12;startSize=8;endSize=8;curved=1;exitX=1;exitY=0.5;exitDx=0;exitDy=0;entryX=0;entryY=0.3333333333333333;entryDx=0;entryDy=0;entryPerimeter=0;" edge="1" parent="1" source="rcEBxRL5Bv03gHmZArJm-25" target="rcEBxRL5Bv03gHmZArJm-19">
          <mxGeometry relative="1" as="geometry">
            <mxPoint x="78" y="-26" as="sourcePoint" />
            <mxPoint x="238" y="-26" as="targetPoint" />
          </mxGeometry>
        </mxCell>
        <mxCell id="rcEBxRL5Bv03gHmZArJm-36" value="&amp;lt;&amp;lt;include&amp;gt;&amp;gt;" style="html=1;verticalAlign=bottom;labelBackgroundColor=none;endArrow=open;endFill=0;dashed=1;rounded=0;fontSize=12;startSize=8;endSize=8;curved=1;exitX=0.047;exitY=0.75;exitDx=0;exitDy=0;exitPerimeter=0;entryX=0.408;entryY=0.095;entryDx=0;entryDy=0;entryPerimeter=0;" edge="1" parent="1" source="rcEBxRL5Bv03gHmZArJm-23" target="DY5siafQQTwBGPKg2IYG-10">
          <mxGeometry width="160" relative="1" as="geometry">
            <mxPoint x="255" y="-238" as="sourcePoint" />
            <mxPoint x="415" y="-238" as="targetPoint" />
          </mxGeometry>
        </mxCell>
        <mxCell id="rcEBxRL5Bv03gHmZArJm-37" value="&amp;lt;&amp;lt;extend&amp;gt;&amp;gt;" style="html=1;verticalAlign=bottom;labelBackgroundColor=none;endArrow=open;endFill=0;dashed=1;rounded=0;fontSize=12;startSize=8;endSize=8;curved=1;exitX=1;exitY=0.5;exitDx=0;exitDy=0;entryX=0;entryY=0.5;entryDx=0;entryDy=0;" edge="1" parent="1" source="DY5siafQQTwBGPKg2IYG-8" target="DY5siafQQTwBGPKg2IYG-25">
          <mxGeometry width="160" relative="1" as="geometry">
            <mxPoint x="106" y="-24" as="sourcePoint" />
            <mxPoint x="266" y="-24" as="targetPoint" />
          </mxGeometry>
        </mxCell>
        <mxCell id="rcEBxRL5Bv03gHmZArJm-38" value="&amp;lt;&amp;lt;extend&amp;gt;&amp;gt;" style="html=1;verticalAlign=bottom;labelBackgroundColor=none;endArrow=open;endFill=0;dashed=1;rounded=0;fontSize=12;startSize=8;endSize=8;curved=1;exitX=0;exitY=0.5;exitDx=0;exitDy=0;entryX=1;entryY=0.5;entryDx=0;entryDy=0;" edge="1" parent="1" source="DY5siafQQTwBGPKg2IYG-10" target="DY5siafQQTwBGPKg2IYG-25">
          <mxGeometry width="160" relative="1" as="geometry">
            <mxPoint x="106" y="-24" as="sourcePoint" />
            <mxPoint x="266" y="-24" as="targetPoint" />
          </mxGeometry>
        </mxCell>
        <mxCell id="rcEBxRL5Bv03gHmZArJm-39" value="&amp;lt;&amp;lt;extend&amp;gt;&amp;gt;" style="html=1;verticalAlign=bottom;labelBackgroundColor=none;endArrow=open;endFill=0;dashed=1;rounded=0;fontSize=12;startSize=8;endSize=8;curved=1;exitX=0.5;exitY=1;exitDx=0;exitDy=0;entryX=1;entryY=0;entryDx=0;entryDy=0;" edge="1" parent="1" source="DY5siafQQTwBGPKg2IYG-9" target="DY5siafQQTwBGPKg2IYG-25">
          <mxGeometry width="160" relative="1" as="geometry">
            <mxPoint x="106" y="-24" as="sourcePoint" />
            <mxPoint x="266" y="-24" as="targetPoint" />
          </mxGeometry>
        </mxCell>
        <mxCell id="rcEBxRL5Bv03gHmZArJm-40" value="&amp;lt;&amp;lt;extend&amp;gt;&amp;gt;" style="html=1;verticalAlign=bottom;labelBackgroundColor=none;endArrow=open;endFill=0;dashed=1;rounded=0;fontSize=12;startSize=8;endSize=8;curved=1;exitX=0.313;exitY=0.93;exitDx=0;exitDy=0;exitPerimeter=0;entryX=0.5;entryY=0;entryDx=0;entryDy=0;" edge="1" parent="1" source="DY5siafQQTwBGPKg2IYG-12" target="DY5siafQQTwBGPKg2IYG-25">
          <mxGeometry width="160" relative="1" as="geometry">
            <mxPoint x="106" y="-24" as="sourcePoint" />
            <mxPoint x="266" y="-24" as="targetPoint" />
          </mxGeometry>
        </mxCell>
        <mxCell id="rcEBxRL5Bv03gHmZArJm-41" value="&amp;lt;&amp;lt;extend&amp;gt;&amp;gt;" style="html=1;verticalAlign=bottom;labelBackgroundColor=none;endArrow=open;endFill=0;dashed=1;rounded=0;fontSize=12;startSize=8;endSize=8;curved=1;exitX=0.5;exitY=1;exitDx=0;exitDy=0;entryX=0;entryY=0;entryDx=0;entryDy=0;" edge="1" parent="1" source="DY5siafQQTwBGPKg2IYG-11" target="DY5siafQQTwBGPKg2IYG-25">
          <mxGeometry width="160" relative="1" as="geometry">
            <mxPoint x="106" y="-24" as="sourcePoint" />
            <mxPoint x="266" y="-24" as="targetPoint" />
          </mxGeometry>
        </mxCell>
        <mxCell id="rcEBxRL5Bv03gHmZArJm-42" value="CREATE BOOKING" style="ellipse;whiteSpace=wrap;html=1;align=center;" vertex="1" parent="1">
          <mxGeometry x="12" y="-61" width="100" height="40" as="geometry" />
        </mxCell>
        <mxCell id="rcEBxRL5Bv03gHmZArJm-43" value="SELECT SEAT" style="ellipse;whiteSpace=wrap;html=1;align=center;" vertex="1" parent="1">
          <mxGeometry x="12" y="6" width="100" height="27" as="geometry" />
        </mxCell>
        <mxCell id="rcEBxRL5Bv03gHmZArJm-45" value="MAKE PAYMENT" style="ellipse;whiteSpace=wrap;html=1;align=center;" vertex="1" parent="1">
          <mxGeometry x="8" y="66" width="100" height="27" as="geometry" />
        </mxCell>
        <mxCell id="rcEBxRL5Bv03gHmZArJm-47" style="edgeStyle=none;curved=1;rounded=0;orthogonalLoop=1;jettySize=auto;html=1;exitX=0.5;exitY=1;exitDx=0;exitDy=0;fontSize=12;startSize=8;endSize=8;" edge="1" parent="1" source="rcEBxRL5Bv03gHmZArJm-45" target="rcEBxRL5Bv03gHmZArJm-45">
          <mxGeometry relative="1" as="geometry" />
        </mxCell>
        <mxCell id="rcEBxRL5Bv03gHmZArJm-48" value="" style="endArrow=none;html=1;rounded=0;fontSize=12;startSize=8;endSize=8;curved=1;exitX=1;exitY=0.5;exitDx=0;exitDy=0;entryX=0;entryY=0.3333333333333333;entryDx=0;entryDy=0;entryPerimeter=0;" edge="1" parent="1" source="rcEBxRL5Bv03gHmZArJm-42" target="DY5siafQQTwBGPKg2IYG-2">
          <mxGeometry relative="1" as="geometry">
            <mxPoint x="106" y="-24" as="sourcePoint" />
            <mxPoint x="266" y="-24" as="targetPoint" />
          </mxGeometry>
        </mxCell>
        <mxCell id="rcEBxRL5Bv03gHmZArJm-49" value="" style="endArrow=none;html=1;rounded=0;fontSize=12;startSize=8;endSize=8;curved=1;exitX=1;exitY=0.3333333333333333;exitDx=0;exitDy=0;exitPerimeter=0;entryX=0;entryY=0.5;entryDx=0;entryDy=0;" edge="1" parent="1" source="DY5siafQQTwBGPKg2IYG-1" target="rcEBxRL5Bv03gHmZArJm-43">
          <mxGeometry relative="1" as="geometry">
            <mxPoint x="-185" y="36" as="sourcePoint" />
            <mxPoint x="-25" y="36" as="targetPoint" />
          </mxGeometry>
        </mxCell>
        <mxCell id="rcEBxRL5Bv03gHmZArJm-50" value="" style="endArrow=none;html=1;rounded=0;fontSize=12;startSize=8;endSize=8;curved=1;entryX=0;entryY=0.3333333333333333;entryDx=0;entryDy=0;entryPerimeter=0;exitX=1;exitY=0.5;exitDx=0;exitDy=0;" edge="1" parent="1" source="rcEBxRL5Bv03gHmZArJm-43" target="DY5siafQQTwBGPKg2IYG-2">
          <mxGeometry relative="1" as="geometry">
            <mxPoint x="202" y="36" as="sourcePoint" />
            <mxPoint x="362" y="36" as="targetPoint" />
          </mxGeometry>
        </mxCell>
        <mxCell id="rcEBxRL5Bv03gHmZArJm-51" value="" style="endArrow=none;html=1;rounded=0;fontSize=12;startSize=8;endSize=8;curved=1;exitX=1;exitY=0.3333333333333333;exitDx=0;exitDy=0;exitPerimeter=0;entryX=0;entryY=0.5;entryDx=0;entryDy=0;" edge="1" parent="1" source="DY5siafQQTwBGPKg2IYG-1" target="rcEBxRL5Bv03gHmZArJm-42">
          <mxGeometry relative="1" as="geometry">
            <mxPoint x="-269.5" y="12" as="sourcePoint" />
            <mxPoint x="-109.5" y="12" as="targetPoint" />
          </mxGeometry>
        </mxCell>
        <mxCell id="rcEBxRL5Bv03gHmZArJm-53" value="" style="endArrow=none;html=1;rounded=0;fontSize=12;startSize=8;endSize=8;curved=1;entryX=0;entryY=0.5;entryDx=0;entryDy=0;" edge="1" parent="1" target="rcEBxRL5Bv03gHmZArJm-45">
          <mxGeometry relative="1" as="geometry">
            <mxPoint x="-357" y="-23" as="sourcePoint" />
            <mxPoint x="-29" y="157" as="targetPoint" />
          </mxGeometry>
        </mxCell>
        <mxCell id="rcEBxRL5Bv03gHmZArJm-54" value="" style="endArrow=none;html=1;rounded=0;fontSize=12;startSize=8;endSize=8;curved=1;entryX=0;entryY=0.3333333333333333;entryDx=0;entryDy=0;entryPerimeter=0;exitX=1;exitY=0.5;exitDx=0;exitDy=0;" edge="1" parent="1" source="rcEBxRL5Bv03gHmZArJm-45" target="DY5siafQQTwBGPKg2IYG-2">
          <mxGeometry relative="1" as="geometry">
            <mxPoint x="140" y="106" as="sourcePoint" />
            <mxPoint x="300" y="106" as="targetPoint" />
          </mxGeometry>
        </mxCell>
        <mxCell id="rcEBxRL5Bv03gHmZArJm-55" value="COUPON" style="ellipse;whiteSpace=wrap;html=1;align=center;" vertex="1" parent="1">
          <mxGeometry x="11.5" y="143" width="100" height="25" as="geometry" />
        </mxCell>
        <mxCell id="rcEBxRL5Bv03gHmZArJm-56" style="edgeStyle=none;curved=1;rounded=0;orthogonalLoop=1;jettySize=auto;html=1;exitX=0.5;exitY=1;exitDx=0;exitDy=0;fontSize=12;startSize=8;endSize=8;" edge="1" parent="1" source="rcEBxRL5Bv03gHmZArJm-55" target="rcEBxRL5Bv03gHmZArJm-55">
          <mxGeometry relative="1" as="geometry" />
        </mxCell>
        <mxCell id="rcEBxRL5Bv03gHmZArJm-57" value="&amp;lt;&amp;lt;include&amp;gt;&amp;gt;" style="html=1;verticalAlign=bottom;labelBackgroundColor=none;endArrow=open;endFill=0;dashed=1;rounded=0;fontSize=12;startSize=8;endSize=8;curved=1;exitX=0.5;exitY=1;exitDx=0;exitDy=0;entryX=0.5;entryY=0;entryDx=0;entryDy=0;" edge="1" parent="1" source="rcEBxRL5Bv03gHmZArJm-45" target="rcEBxRL5Bv03gHmZArJm-55">
          <mxGeometry width="160" relative="1" as="geometry">
            <mxPoint x="8" y="123" as="sourcePoint" />
            <mxPoint x="168" y="123" as="targetPoint" />
            <Array as="points" />
          </mxGeometry>
        </mxCell>
        <mxCell id="rcEBxRL5Bv03gHmZArJm-58" value="SHOW TICKET" style="ellipse;whiteSpace=wrap;html=1;align=center;" vertex="1" parent="1">
          <mxGeometry x="22" y="245" width="100" height="40" as="geometry" />
        </mxCell>
        <mxCell id="rcEBxRL5Bv03gHmZArJm-59" value="CANCEL TICKET" style="ellipse;whiteSpace=wrap;html=1;align=center;" vertex="1" parent="1">
          <mxGeometry x="22" y="341" width="100" height="40" as="geometry" />
        </mxCell>
        <mxCell id="rcEBxRL5Bv03gHmZArJm-62" value="" style="endArrow=none;html=1;rounded=0;fontSize=12;startSize=8;endSize=8;curved=1;entryX=0;entryY=0.3333333333333333;entryDx=0;entryDy=0;entryPerimeter=0;exitX=1;exitY=0.5;exitDx=0;exitDy=0;" edge="1" parent="1" source="rcEBxRL5Bv03gHmZArJm-58" target="DY5siafQQTwBGPKg2IYG-2">
          <mxGeometry relative="1" as="geometry">
            <mxPoint x="164" y="253" as="sourcePoint" />
            <mxPoint x="324" y="253" as="targetPoint" />
          </mxGeometry>
        </mxCell>
        <mxCell id="rcEBxRL5Bv03gHmZArJm-63" value="" style="endArrow=none;html=1;rounded=0;fontSize=12;startSize=8;endSize=8;curved=1;entryX=0;entryY=0.5;entryDx=0;entryDy=0;" edge="1" parent="1" target="rcEBxRL5Bv03gHmZArJm-58">
          <mxGeometry relative="1" as="geometry">
            <mxPoint x="-353" y="-16" as="sourcePoint" />
            <mxPoint x="-33" y="-24" as="targetPoint" />
          </mxGeometry>
        </mxCell>
        <mxCell id="rcEBxRL5Bv03gHmZArJm-65" value="" style="endArrow=none;html=1;rounded=0;fontSize=12;startSize=8;endSize=8;curved=1;entryX=0;entryY=0.5;entryDx=0;entryDy=0;exitX=1;exitY=0.3333333333333333;exitDx=0;exitDy=0;exitPerimeter=0;" edge="1" parent="1" source="DY5siafQQTwBGPKg2IYG-1" target="rcEBxRL5Bv03gHmZArJm-59">
          <mxGeometry relative="1" as="geometry">
            <mxPoint x="-204" y="332" as="sourcePoint" />
            <mxPoint x="-44" y="332" as="targetPoint" />
          </mxGeometry>
        </mxCell>
        <mxCell id="rcEBxRL5Bv03gHmZArJm-66" value="" style="endArrow=none;html=1;rounded=0;fontSize=12;startSize=8;endSize=8;curved=1;exitX=1;exitY=0.5;exitDx=0;exitDy=0;" edge="1" parent="1" source="rcEBxRL5Bv03gHmZArJm-59">
          <mxGeometry relative="1" as="geometry">
            <mxPoint x="179" y="329" as="sourcePoint" />
            <mxPoint x="482" y="-15" as="targetPoint" />
          </mxGeometry>
        </mxCell>
        <mxCell id="rcEBxRL5Bv03gHmZArJm-67" value="PAYMENT REFUND" style="ellipse;whiteSpace=wrap;html=1;align=center;" vertex="1" parent="1">
          <mxGeometry x="22" y="425" width="100" height="40" as="geometry" />
        </mxCell>
        <mxCell id="rcEBxRL5Bv03gHmZArJm-68" value="&amp;lt;&amp;lt;include&amp;gt;&amp;gt;" style="html=1;verticalAlign=bottom;labelBackgroundColor=none;endArrow=open;endFill=0;dashed=1;rounded=0;fontSize=12;startSize=8;endSize=8;curved=1;exitX=0.5;exitY=1;exitDx=0;exitDy=0;entryX=0.5;entryY=0;entryDx=0;entryDy=0;" edge="1" parent="1" source="rcEBxRL5Bv03gHmZArJm-59" target="rcEBxRL5Bv03gHmZArJm-67">
          <mxGeometry width="160" relative="1" as="geometry">
            <mxPoint x="112" y="399" as="sourcePoint" />
            <mxPoint x="272" y="399" as="targetPoint" />
          </mxGeometry>
        </mxCell>
        <mxCell id="rcEBxRL5Bv03gHmZArJm-70" value="APP" style="shape=umlActor;verticalLabelPosition=bottom;verticalAlign=top;html=1;" vertex="1" parent="1">
          <mxGeometry x="-350" y="575" width="30" height="60" as="geometry" />
        </mxCell>
        <mxCell id="rcEBxRL5Bv03gHmZArJm-71" value="TICKET BOOKED NOTIFICATION" style="ellipse;whiteSpace=wrap;html=1;align=center;" vertex="1" parent="1">
          <mxGeometry x="-78" y="654" width="140" height="40" as="geometry" />
        </mxCell>
        <mxCell id="rcEBxRL5Bv03gHmZArJm-72" value="TICKET CANCELED NOTIFICATION" style="ellipse;whiteSpace=wrap;html=1;align=center;" vertex="1" parent="1">
          <mxGeometry x="-78" y="770" width="140" height="40" as="geometry" />
        </mxCell>
        <mxCell id="rcEBxRL5Bv03gHmZArJm-73" value="NEW MOVIE NOTIFICATION" style="ellipse;whiteSpace=wrap;html=1;align=center;" vertex="1" parent="1">
          <mxGeometry x="-78" y="544" width="140" height="40" as="geometry" />
        </mxCell>
        <mxCell id="rcEBxRL5Bv03gHmZArJm-77" value="" style="endArrow=none;startArrow=none;endFill=0;startFill=0;endSize=8;html=1;verticalAlign=bottom;labelBackgroundColor=none;strokeWidth=3;rounded=0;fontSize=12;curved=1;exitX=1;exitY=0.3333333333333333;exitDx=0;exitDy=0;exitPerimeter=0;entryX=0;entryY=0.5;entryDx=0;entryDy=0;" edge="1" parent="1" source="rcEBxRL5Bv03gHmZArJm-70" target="rcEBxRL5Bv03gHmZArJm-73">
          <mxGeometry width="160" relative="1" as="geometry">
            <mxPoint x="-169" y="734" as="sourcePoint" />
            <mxPoint x="-9" y="734" as="targetPoint" />
          </mxGeometry>
        </mxCell>
        <mxCell id="rcEBxRL5Bv03gHmZArJm-82" value="" style="endArrow=none;startArrow=none;endFill=0;startFill=0;endSize=8;html=1;verticalAlign=bottom;labelBackgroundColor=none;strokeWidth=3;rounded=0;fontSize=12;curved=1;exitX=1;exitY=0.3333333333333333;exitDx=0;exitDy=0;exitPerimeter=0;entryX=0;entryY=0.5;entryDx=0;entryDy=0;" edge="1" parent="1" source="rcEBxRL5Bv03gHmZArJm-70" target="rcEBxRL5Bv03gHmZArJm-71">
          <mxGeometry width="160" relative="1" as="geometry">
            <mxPoint x="-169" y="734" as="sourcePoint" />
            <mxPoint x="-9" y="734" as="targetPoint" />
          </mxGeometry>
        </mxCell>
        <mxCell id="rcEBxRL5Bv03gHmZArJm-83" value="" style="endArrow=none;startArrow=none;endFill=0;startFill=0;endSize=8;html=1;verticalAlign=bottom;labelBackgroundColor=none;strokeWidth=3;rounded=0;fontSize=12;curved=1;exitX=1;exitY=0.3333333333333333;exitDx=0;exitDy=0;exitPerimeter=0;entryX=0;entryY=0.5;entryDx=0;entryDy=0;" edge="1" parent="1" source="rcEBxRL5Bv03gHmZArJm-70" target="rcEBxRL5Bv03gHmZArJm-72">
          <mxGeometry width="160" relative="1" as="geometry">
            <mxPoint x="-169" y="734" as="sourcePoint" />
            <mxPoint x="-9" y="734" as="targetPoint" />
          </mxGeometry>
        </mxCell>
      </root>
    </mxGraphModel>
  </diagram>
</mxfile>
